<?xml version="1.0" standalone="no"?>
<!DOCTYPE svg PUBLIC "-//W3C//DTD SVG 20010904//EN"
 "http://www.w3.org/TR/2001/REC-SVG-20010904/DTD/svg10.dtd">
<svg version="1.0" xmlns="http://www.w3.org/2000/svg"
 width="955.000000pt" height="153.000000pt" viewBox="0 0 955.000000 153.000000"
 preserveAspectRatio="xMidYMid meet">

<g transform="translate(0.000000,153.000000) scale(0.100000,-0.100000)"
fill="#000000" stroke="none">
<path d="M0 765 l0 -765 4775 0 4775 0 0 765 0 765 -4775 0 -4775 0 0 -765z
m2520 444 l0 -251 50 46 c156 139 403 120 551 -43 155 -169 185 -417 73 -618
-97 -174 -275 -264 -450 -227 -77 16 -126 40 -186 94 l-48 42 0 -60 c0 -59 -1
-61 -30 -67 -39 -9 -191 -4 -212 7 -9 4 -15 16 -13 25 2 10 4 307 4 661 l1
642 130 0 130 0 0 -251z m-1643 -246 c-5 -489 -10 -540 -59 -642 -34 -71 -109
-144 -181 -176 -51 -23 -80 -29 -164 -33 -130 -6 -221 15 -302 69 -102 68
-101 65 -28 148 35 39 74 79 86 87 21 15 25 14 61 -10 115 -76 227 -47 287 73
16 33 18 77 21 489 l4 452 140 0 140 0 -5 -457z m2873 207 l5 -245 268 1 c148
1 272 5 277 10 5 5 10 113 12 239 l3 230 141 3 140 3 0 -635 c-1 -349 -5 -638
-9 -643 -9 -8 -258 -5 -267 4 -3 2 -6 116 -8 251 -1 136 -5 253 -7 260 -3 9
-68 12 -280 12 l-275 0 -2 -268 -3 -267 -123 -2 c-68 -1 -130 1 -138 4 -12 4
-14 97 -14 649 l0 645 138 -3 137 -3 5 -245z m3670 36 l0 -124 110 -7 110 -8
0 -86 c0 -137 4 -131 -106 -131 -78 0 -96 -3 -101 -16 -3 -9 -7 -103 -7 -208
-1 -213 6 -246 55 -267 17 -6 57 -11 89 -11 70 1 69 3 72 -121 2 -69 0 -90
-12 -97 -8 -5 -73 -10 -145 -10 -154 0 -191 13 -248 82 -68 83 -71 95 -75 378
-3 177 -8 257 -16 262 -6 4 -39 8 -73 8 l-63 0 0 33 c0 19 -3 68 -6 110 l-7
77 81 0 80 0 4 120 c2 94 6 123 18 130 8 5 66 10 128 10 l112 0 0 -124z
m-5675 -137 c228 -77 363 -303 327 -549 -15 -106 -52 -180 -132 -261 -102
-104 -217 -150 -376 -151 -143 0 -258 46 -360 143 -100 97 -144 203 -144 349
0 143 44 252 142 352 127 131 355 179 543 117z m4867 20 c74 -16 117 -40 166
-93 66 -72 82 -120 93 -278 10 -135 9 -572 -1 -581 -3 -3 -61 -6 -129 -8
l-125 -4 -3 270 c-5 365 -14 406 -94 448 -54 29 -153 20 -206 -18 -72 -51 -75
-69 -81 -400 -3 -195 -8 -292 -15 -297 -6 -4 -66 -6 -132 -5 l-120 2 -3 473
-2 472 115 0 c133 0 155 -11 155 -77 l0 -37 43 41 c91 88 208 120 339 92z
m1798 -18 c97 -30 214 -130 262 -225 28 -55 48 -158 48 -253 l0 -83 -351 0
-350 0 7 -22 c23 -75 79 -130 156 -153 96 -28 186 -12 279 51 l53 35 77 -77
78 -78 -57 -43 c-75 -59 -151 -92 -246 -109 -120 -21 -265 1 -362 56 -61 35
-163 140 -193 197 -85 167 -61 408 55 550 40 48 139 122 199 148 89 38 234 40
345 6z m1070 -83 c0 -160 3 -155 -84 -160 -82 -5 -154 -35 -191 -80 -35 -42
-45 -114 -53 -380 l-7 -243 -110 -1 c-60 -1 -116 1 -123 5 -10 6 -13 104 -15
474 l-2 467 128 0 127 0 0 -81 0 -82 26 39 c68 102 155 151 267 153 l37 1 0
-112z m-4386 -215 c8 -343 11 -358 86 -405 90 -56 243 -5 270 90 6 20 13 147
16 282 3 135 7 264 10 288 l5 43 125 -3 124 -3 1 -470 0 -470 -118 4 c-65 2
-120 5 -122 7 -2 2 -6 29 -9 59 -2 30 -7 55 -10 55 -3 0 -29 -23 -59 -51 -76
-72 -123 -90 -237 -91 -72 0 -103 4 -139 20 -63 28 -132 94 -162 157 -32 64
-41 176 -44 538 l-2 247 129 0 129 0 7 -297z"/>
<path d="M2700 859 c-167 -32 -246 -262 -142 -414 36 -51 136 -105 195 -105
88 0 189 73 218 157 7 21 13 70 13 108 0 121 -41 195 -131 232 -63 27 -99 32
-153 22z"/>
<path d="M1465 837 c-91 -43 -137 -120 -138 -227 0 -111 51 -197 145 -244 71
-36 121 -34 198 7 140 72 185 242 102 377 -61 99 -199 138 -307 87z"/>
<path d="M8200 890 c-49 -9 -70 -22 -118 -74 -46 -50 -63 -93 -41 -107 18 -11
400 -11 418 0 11 7 8 19 -15 62 -42 77 -94 110 -194 124 -8 1 -31 -1 -50 -5z"/>
</g>
</svg>
